<svg width="110px" height="50px" viewBox="0 0 91 46" fill="currentcolor" xmlns="http://www.w3.org/2000/svg">
<path   d="M7.42517 0.138954C0.903941 1.58283 0.689453 20.4623 0.689453 22.6949C0.689453 24.9274 0.903941 43.8069 7.42517 45.2508C7.66982 45.3359 7.92947 45.3897 8.21539 45.3897L83.4742 45.3897C83.7602 45.3897 84.0198 45.3359 84.2645 45.2508C90.7855 43.8069 91 24.9274 91 22.6949C91 20.4623 90.7855 1.58283 84.2643 0.138954C84.0196 0.0538483 83.76 -7.62939e-06 83.4741 -7.62939e-06L8.21539 -7.62939e-06C7.92929 -0.000141144 7.66965 0.0538483 7.42517 0.138954ZM4.45233 22.6949C4.45233 11.0296 6.78912 4.38574 8.21521 3.0041C9.64149 4.38574 11.9783 11.0296 11.9783 22.6949C11.9783 34.3601 9.64149 41.004 8.21539 42.3856C6.78912 41.004 4.45233 34.3601 4.45233 22.6949ZM83.237 2.83681C84.6218 3.64811 87.2369 10.3432 87.2369 22.6949C87.2369 35.1942 84.5539 41.9261 83.4741 42.5529L12.2303 42.5529C15.602 36.8821 15.7412 24.4764 15.7412 22.6949C15.7412 20.9134 15.602 8.50767 12.2303 2.83681L83.237 2.83681Z" fill="currentcolor" fill-opacity="1"/>
</svg>
